<svg aria-hidden="true" style="position: absolute; width: 0; height: 0; overflow: hidden;" version="1.1" xmlns="http://www.w3.org/2000/svg" xmlns:xlink="http://www.w3.org/1999/xlink">
<defs>
<!-- Оптимізовані SVG подавати сюди -->
    <symbol id="icon-modal-close" viewBox="0 0 32 32">
        <path d="M18.006 16.531l11.786-11.914c0.214-0.25 0.344-0.578 0.344-0.936 0-0.396-0.159-0.755-0.417-1.016l0 0c-0.256-0.258-0.612-0.418-1.004-0.418-0.355 0-0.679 0.131-0.927 0.346l0.002-0.001-11.789 11.91-11.789-11.926c-0.258-0.265-0.619-0.43-1.018-0.43-0.785 0-1.421 0.636-1.421 1.421 0 0.012 0 0.023 0 0.035l-0-0.002c0 0.381 0.15 0.746 0.416 1.018l11.808 11.914-11.808 11.91c-0.306 0.264-0.498 0.653-0.498 1.086 0 0.191 0.037 0.373 0.105 0.539l-0.003-0.010c0.216 0.539 0.734 0.912 1.34 0.912 0.013 0 0.025-0 0.038-0l-0.002 0c0.413-0.016 0.778-0.207 1.025-0.5l0.002-0.002 11.808-11.907 11.786 11.904c0.247 0.214 0.571 0.345 0.925 0.345 0.393 0 0.748-0.16 1.004-0.418l0-0c0.259-0.261 0.418-0.62 0.418-1.016 0-0.358-0.13-0.686-0.346-0.938l0.002 0.002-11.786-11.907z"></path>
    </symbol>
</defs>
</svg>